<svg width="32" height="232" viewBox="0 0 32 232" xmlns="http://www.w3.org/2000/svg"><g fill="none"><path d="M21.47 138.222c-.036-.973 1.564-2.478 1.564-2.478s1.4-1.474 2.433-1.474l2.16.542c.174 0 .33-.028.49-.092.165-.066.282-.148.4-.246l.09-.06.062-.095c.45-.55.44-1.34-.07-1.85l-6.08-6.08c-.51-.51-1.31-.52-1.85-.07l-.06.03-.1.12c-.1.11-.18.23-.23.35-.08.21-.11.36-.11.52 0 .74.54 1.46.54 2.17 0 1.03-1.48 2.43-1.48 2.43s-1.51 1.6-2.48 1.56c-1.96-.08-2.11-.59-3.72-.48-1.13.08-2.12 1.25-2.12 1.25l3.7 4.87-3.43 3.43-3.2 4.28.12.12 4.26-3.22 3.43-3.43 4.87 3.7s1.18-.99 1.26-2.12c.11-1.6-.4-1.76-.48-3.72zm0 0" fill="#206FAC"/><path d="M18.968 98.222c-.035-.973 1.565-2.478 1.565-2.478s1.4-1.474 2.433-1.474l2.16.542c.174 0 .33-.028.49-.092.165-.066.282-.148.4-.246l.09-.06.062-.095c.457-.55.445-1.34-.06-1.85l-6.083-6.08c-.508-.51-1.305-.52-1.846-.07l-.06.03-.1.12c-.1.11-.18.23-.23.35-.08.21-.11.36-.11.52 0 .74.54 1.46.54 2.17 0 1.03-1.48 2.43-1.48 2.43s-1.51 1.6-2.48 1.56c-1.96-.08-2.12-.59-3.72-.48-1.14.08-2.12 1.25-2.12 1.25l3.7 4.87-3.43 3.43-3.22 4.26.12.12 4.26-3.22 3.43-3.43 4.87 3.7s1.18-.98 1.25-2.12c.11-1.595-.41-1.75-.48-3.71zm0 0" fill="#fff"/><path d="M18.968 58.222c-.035-.973 1.565-2.478 1.565-2.478s1.4-1.474 2.433-1.474l2.16.542c.174 0 .33-.028.49-.092.165-.066.282-.148.4-.246l.09-.06.062-.095c.457-.55.445-1.34-.06-1.85l-6.083-6.08c-.508-.51-1.305-.52-1.846-.07l-.06.03-.1.12c-.1.11-.18.23-.23.35-.08.21-.11.36-.11.52 0 .74.54 1.46.54 2.17 0 1.03-1.48 2.43-1.48 2.43s-1.51 1.6-2.48 1.56c-1.96-.08-2.12-.59-3.72-.48-1.14.08-2.12 1.25-2.12 1.25l3.7 4.87-3.43 3.43-3.22 4.26.12.12 4.26-3.22 3.43-3.43 4.87 3.7s1.18-.98 1.25-2.12c.11-1.595-.41-1.75-.48-3.71zm0 0" fill="#67737B"/><path d="M18.968 18.222c-.035-.973 1.565-2.478 1.565-2.478s1.4-1.474 2.433-1.474l2.16.542c.174 0 .33-.028.49-.092.165-.066.282-.148.4-.246l.09-.06.062-.095c.457-.55.445-1.34-.06-1.85l-6.083-6.08c-.508-.51-1.305-.52-1.846-.07l-.06.03-.1.12c-.1.11-.18.23-.23.35-.08.21-.11.36-.11.52 0 .74.54 1.46.54 2.17 0 1.03-1.48 2.43-1.48 2.43s-1.51 1.6-2.48 1.56c-1.96-.08-2.12-.59-3.72-.48-1.14.08-2.12 1.25-2.12 1.25l3.7 4.87-3.43 3.43-3.22 4.26.12.12 4.26-3.22 3.43-3.43 4.87 3.7s1.18-.98 1.25-2.12c.11-1.595-.41-1.75-.48-3.71zm0 0" fill="#3A434E"/></g></svg>